<mxfile host="Electron" agent="Mozilla/5.0 (Windows NT 10.0; Win64; x64) AppleWebKit/537.36 (KHTML, like Gecko) draw.io/24.7.17 Chrome/128.0.6613.36 Electron/32.0.1 Safari/537.36" version="24.7.17">
  <diagram name="Motion" id="SO0TNG_3Xat7ZEYqbN8a">
    <mxGraphModel dx="1793" dy="1105" grid="1" gridSize="10" guides="1" tooltips="1" connect="1" arrows="1" fold="1" page="1" pageScale="1" pageWidth="827" pageHeight="1169" math="0" shadow="0">
      <root>
        <mxCell id="0" />
        <mxCell id="1" parent="0" />
        <mxCell id="qD_gobMW6qZHkKwWh9-T-16" style="edgeStyle=orthogonalEdgeStyle;rounded=0;orthogonalLoop=1;jettySize=auto;html=1;exitX=0.5;exitY=1;exitDx=0;exitDy=0;" edge="1" parent="1" source="qD_gobMW6qZHkKwWh9-T-1" target="qD_gobMW6qZHkKwWh9-T-5">
          <mxGeometry relative="1" as="geometry" />
        </mxCell>
        <mxCell id="qD_gobMW6qZHkKwWh9-T-1" value="moments" style="shape=parallelogram;html=1;strokeWidth=2;perimeter=parallelogramPerimeter;whiteSpace=wrap;rounded=1;arcSize=12;size=0.23;" vertex="1" parent="1">
          <mxGeometry x="434" y="190" width="100" height="60" as="geometry" />
        </mxCell>
        <mxCell id="qD_gobMW6qZHkKwWh9-T-17" style="edgeStyle=orthogonalEdgeStyle;rounded=0;orthogonalLoop=1;jettySize=auto;html=1;exitX=0.5;exitY=1;exitDx=0;exitDy=0;entryX=0.5;entryY=0;entryDx=0;entryDy=0;" edge="1" parent="1" source="qD_gobMW6qZHkKwWh9-T-2" target="qD_gobMW6qZHkKwWh9-T-7">
          <mxGeometry relative="1" as="geometry" />
        </mxCell>
        <mxCell id="qD_gobMW6qZHkKwWh9-T-2" value="forces" style="shape=parallelogram;html=1;strokeWidth=2;perimeter=parallelogramPerimeter;whiteSpace=wrap;rounded=1;arcSize=12;size=0.23;" vertex="1" parent="1">
          <mxGeometry x="304" y="190" width="100" height="60" as="geometry" />
        </mxCell>
        <mxCell id="qD_gobMW6qZHkKwWh9-T-13" style="edgeStyle=orthogonalEdgeStyle;rounded=0;orthogonalLoop=1;jettySize=auto;html=1;exitX=0.5;exitY=1;exitDx=0;exitDy=0;entryX=0.5;entryY=0;entryDx=0;entryDy=0;" edge="1" parent="1" source="qD_gobMW6qZHkKwWh9-T-5" target="qD_gobMW6qZHkKwWh9-T-11">
          <mxGeometry relative="1" as="geometry" />
        </mxCell>
        <mxCell id="qD_gobMW6qZHkKwWh9-T-5" value="calculate angular acceleration" style="rounded=1;whiteSpace=wrap;html=1;absoluteArcSize=1;arcSize=14;strokeWidth=2;" vertex="1" parent="1">
          <mxGeometry x="434" y="300" width="100" height="60" as="geometry" />
        </mxCell>
        <mxCell id="qD_gobMW6qZHkKwWh9-T-6" style="edgeStyle=orthogonalEdgeStyle;rounded=0;orthogonalLoop=1;jettySize=auto;html=1;exitX=0.5;exitY=1;exitDx=0;exitDy=0;" edge="1" parent="1">
          <mxGeometry relative="1" as="geometry">
            <mxPoint x="434" y="450" as="sourcePoint" />
            <mxPoint x="434" y="450" as="targetPoint" />
          </mxGeometry>
        </mxCell>
        <mxCell id="qD_gobMW6qZHkKwWh9-T-12" style="edgeStyle=orthogonalEdgeStyle;rounded=0;orthogonalLoop=1;jettySize=auto;html=1;exitX=0.5;exitY=1;exitDx=0;exitDy=0;entryX=0.5;entryY=0;entryDx=0;entryDy=0;" edge="1" parent="1" source="qD_gobMW6qZHkKwWh9-T-7" target="qD_gobMW6qZHkKwWh9-T-9">
          <mxGeometry relative="1" as="geometry" />
        </mxCell>
        <mxCell id="qD_gobMW6qZHkKwWh9-T-7" value="calculate linear acceleration" style="rounded=1;whiteSpace=wrap;html=1;absoluteArcSize=1;arcSize=14;strokeWidth=2;" vertex="1" parent="1">
          <mxGeometry x="304" y="375" width="100" height="60" as="geometry" />
        </mxCell>
        <mxCell id="qD_gobMW6qZHkKwWh9-T-9" value="calculate translation" style="verticalLabelPosition=middle;verticalAlign=middle;html=1;shape=process;whiteSpace=wrap;rounded=1;size=0.14;arcSize=6;labelPosition=center;align=center;" vertex="1" parent="1">
          <mxGeometry x="304" y="510" width="100" height="60" as="geometry" />
        </mxCell>
        <mxCell id="qD_gobMW6qZHkKwWh9-T-10" value="calculate rotation" style="verticalLabelPosition=middle;verticalAlign=middle;html=1;shape=process;whiteSpace=wrap;rounded=1;size=0.14;arcSize=6;labelPosition=center;align=center;" vertex="1" parent="1">
          <mxGeometry x="434" y="510" width="100" height="60" as="geometry" />
        </mxCell>
        <mxCell id="qD_gobMW6qZHkKwWh9-T-14" style="edgeStyle=orthogonalEdgeStyle;rounded=0;orthogonalLoop=1;jettySize=auto;html=1;exitX=0.5;exitY=1;exitDx=0;exitDy=0;entryX=0.5;entryY=0;entryDx=0;entryDy=0;" edge="1" parent="1" source="qD_gobMW6qZHkKwWh9-T-11" target="qD_gobMW6qZHkKwWh9-T-10">
          <mxGeometry relative="1" as="geometry" />
        </mxCell>
        <mxCell id="qD_gobMW6qZHkKwWh9-T-11" value="calculate axis" style="verticalLabelPosition=middle;verticalAlign=middle;html=1;shape=process;whiteSpace=wrap;rounded=1;size=0.14;arcSize=6;labelPosition=center;align=center;" vertex="1" parent="1">
          <mxGeometry x="434" y="430" width="100" height="60" as="geometry" />
        </mxCell>
        <mxCell id="qD_gobMW6qZHkKwWh9-T-21" style="edgeStyle=orthogonalEdgeStyle;rounded=0;orthogonalLoop=1;jettySize=auto;html=1;exitX=1;exitY=0.5;exitDx=0;exitDy=0;entryX=0;entryY=0.5;entryDx=0;entryDy=0;" edge="1" parent="1" source="qD_gobMW6qZHkKwWh9-T-18" target="qD_gobMW6qZHkKwWh9-T-7">
          <mxGeometry relative="1" as="geometry" />
        </mxCell>
        <mxCell id="qD_gobMW6qZHkKwWh9-T-18" value="vehicle mass" style="shape=parallelogram;html=1;strokeWidth=2;perimeter=parallelogramPerimeter;whiteSpace=wrap;rounded=1;arcSize=12;size=0.23;" vertex="1" parent="1">
          <mxGeometry x="114" y="375" width="100" height="60" as="geometry" />
        </mxCell>
        <mxCell id="qD_gobMW6qZHkKwWh9-T-20" style="edgeStyle=orthogonalEdgeStyle;rounded=0;orthogonalLoop=1;jettySize=auto;html=1;exitX=0;exitY=0.5;exitDx=0;exitDy=0;entryX=1;entryY=0.5;entryDx=0;entryDy=0;" edge="1" parent="1" source="qD_gobMW6qZHkKwWh9-T-19" target="qD_gobMW6qZHkKwWh9-T-5">
          <mxGeometry relative="1" as="geometry" />
        </mxCell>
        <mxCell id="qD_gobMW6qZHkKwWh9-T-19" value="vehicle inertia tensor" style="shape=parallelogram;html=1;strokeWidth=2;perimeter=parallelogramPerimeter;whiteSpace=wrap;rounded=1;arcSize=12;size=0.23;" vertex="1" parent="1">
          <mxGeometry x="614" y="300" width="100" height="60" as="geometry" />
        </mxCell>
      </root>
    </mxGraphModel>
  </diagram>
</mxfile>
